<mxfile host="Electron" modified="2023-07-08T04:08:53.811Z" agent="Mozilla/5.0 (Windows NT 10.0; Win64; x64) AppleWebKit/537.36 (KHTML, like Gecko) draw.io/21.6.1 Chrome/112.0.5615.204 Electron/24.6.1 Safari/537.36" etag="4PTKA55j62D9BrDfCS-A" version="21.6.1" type="device">
  <diagram name="第 1 页" id="BU6Q65cIdg73-IPY4VQ8">
    <mxGraphModel dx="1668" dy="965" grid="1" gridSize="10" guides="1" tooltips="1" connect="1" arrows="1" fold="1" page="1" pageScale="1" pageWidth="1169" pageHeight="827" math="0" shadow="0">
      <root>
        <mxCell id="0" />
        <mxCell id="1" parent="0" />
        <mxCell id="st4I57soAoaPSC-TbPq0-47" value="" style="group" vertex="1" connectable="0" parent="1">
          <mxGeometry x="60" y="90" width="1070" height="490" as="geometry" />
        </mxCell>
        <mxCell id="st4I57soAoaPSC-TbPq0-1" value="kubectl" style="rounded=1;whiteSpace=wrap;html=1;fontSize=22;" vertex="1" parent="st4I57soAoaPSC-TbPq0-47">
          <mxGeometry x="20" y="30" width="120" height="60" as="geometry" />
        </mxCell>
        <mxCell id="st4I57soAoaPSC-TbPq0-2" value="kube-apiserver" style="rounded=1;whiteSpace=wrap;html=1;fontSize=22;" vertex="1" parent="st4I57soAoaPSC-TbPq0-47">
          <mxGeometry x="20" y="230" width="1040" height="60" as="geometry" />
        </mxCell>
        <mxCell id="st4I57soAoaPSC-TbPq0-3" value="kube-scheduler" style="rounded=1;whiteSpace=wrap;html=1;fontSize=22;" vertex="1" parent="st4I57soAoaPSC-TbPq0-47">
          <mxGeometry x="580" y="30" width="280" height="60" as="geometry" />
        </mxCell>
        <mxCell id="st4I57soAoaPSC-TbPq0-4" value="kubelet" style="rounded=1;whiteSpace=wrap;html=1;fontSize=22;" vertex="1" parent="st4I57soAoaPSC-TbPq0-47">
          <mxGeometry x="940" y="30" width="120" height="60" as="geometry" />
        </mxCell>
        <mxCell id="st4I57soAoaPSC-TbPq0-5" value="kube-controller-manager" style="rounded=1;whiteSpace=wrap;html=1;fontSize=22;" vertex="1" parent="st4I57soAoaPSC-TbPq0-47">
          <mxGeometry x="220" y="30" width="280" height="60" as="geometry" />
        </mxCell>
        <mxCell id="st4I57soAoaPSC-TbPq0-7" value="etcd" style="rounded=1;whiteSpace=wrap;html=1;fontSize=22;" vertex="1" parent="st4I57soAoaPSC-TbPq0-47">
          <mxGeometry x="20" y="430" width="1040" height="60" as="geometry" />
        </mxCell>
        <mxCell id="st4I57soAoaPSC-TbPq0-8" value="" style="endArrow=classic;html=1;rounded=0;exitX=0.5;exitY=1;exitDx=0;exitDy=0;entryX=0.058;entryY=0.01;entryDx=0;entryDy=0;entryPerimeter=0;" edge="1" parent="st4I57soAoaPSC-TbPq0-47" source="st4I57soAoaPSC-TbPq0-1" target="st4I57soAoaPSC-TbPq0-2">
          <mxGeometry width="50" height="50" relative="1" as="geometry">
            <mxPoint x="100" y="170" as="sourcePoint" />
            <mxPoint x="150" y="120" as="targetPoint" />
          </mxGeometry>
        </mxCell>
        <mxCell id="st4I57soAoaPSC-TbPq0-11" value="" style="endArrow=classic;html=1;rounded=0;exitX=0.5;exitY=1;exitDx=0;exitDy=0;entryX=0.058;entryY=0.01;entryDx=0;entryDy=0;entryPerimeter=0;" edge="1" parent="st4I57soAoaPSC-TbPq0-47">
          <mxGeometry width="50" height="50" relative="1" as="geometry">
            <mxPoint x="170" y="290" as="sourcePoint" />
            <mxPoint x="170" y="431" as="targetPoint" />
          </mxGeometry>
        </mxCell>
        <mxCell id="st4I57soAoaPSC-TbPq0-12" value="" style="endArrow=classic;html=1;rounded=0;exitX=0.5;exitY=1;exitDx=0;exitDy=0;entryX=0.058;entryY=0.01;entryDx=0;entryDy=0;entryPerimeter=0;" edge="1" parent="st4I57soAoaPSC-TbPq0-47">
          <mxGeometry width="50" height="50" relative="1" as="geometry">
            <mxPoint x="260" y="89" as="sourcePoint" />
            <mxPoint x="260" y="230" as="targetPoint" />
          </mxGeometry>
        </mxCell>
        <mxCell id="st4I57soAoaPSC-TbPq0-13" value="" style="endArrow=classic;html=1;rounded=0;exitX=0.5;exitY=1;exitDx=0;exitDy=0;entryX=0.058;entryY=0.01;entryDx=0;entryDy=0;entryPerimeter=0;" edge="1" parent="st4I57soAoaPSC-TbPq0-47">
          <mxGeometry width="50" height="50" relative="1" as="geometry">
            <mxPoint x="460" y="89" as="sourcePoint" />
            <mxPoint x="460" y="230" as="targetPoint" />
          </mxGeometry>
        </mxCell>
        <mxCell id="st4I57soAoaPSC-TbPq0-14" value="" style="endArrow=classic;html=1;rounded=0;exitX=0.5;exitY=1;exitDx=0;exitDy=0;entryX=0.058;entryY=0.01;entryDx=0;entryDy=0;entryPerimeter=0;" edge="1" parent="st4I57soAoaPSC-TbPq0-47">
          <mxGeometry width="50" height="50" relative="1" as="geometry">
            <mxPoint x="620" y="89" as="sourcePoint" />
            <mxPoint x="620" y="230" as="targetPoint" />
          </mxGeometry>
        </mxCell>
        <mxCell id="st4I57soAoaPSC-TbPq0-15" value="" style="endArrow=classic;html=1;rounded=0;exitX=0.5;exitY=1;exitDx=0;exitDy=0;entryX=0.058;entryY=0.01;entryDx=0;entryDy=0;entryPerimeter=0;" edge="1" parent="st4I57soAoaPSC-TbPq0-47">
          <mxGeometry width="50" height="50" relative="1" as="geometry">
            <mxPoint x="540" y="290" as="sourcePoint" />
            <mxPoint x="540" y="431" as="targetPoint" />
          </mxGeometry>
        </mxCell>
        <mxCell id="st4I57soAoaPSC-TbPq0-16" value="" style="endArrow=classic;html=1;rounded=0;exitX=0.5;exitY=1;exitDx=0;exitDy=0;entryX=0.058;entryY=0.01;entryDx=0;entryDy=0;entryPerimeter=0;" edge="1" parent="st4I57soAoaPSC-TbPq0-47">
          <mxGeometry width="50" height="50" relative="1" as="geometry">
            <mxPoint x="820" y="89" as="sourcePoint" />
            <mxPoint x="820" y="230" as="targetPoint" />
          </mxGeometry>
        </mxCell>
        <mxCell id="st4I57soAoaPSC-TbPq0-17" value="" style="endArrow=classic;html=1;rounded=0;exitX=0.5;exitY=1;exitDx=0;exitDy=0;entryX=0.058;entryY=0.01;entryDx=0;entryDy=0;entryPerimeter=0;" edge="1" parent="st4I57soAoaPSC-TbPq0-47">
          <mxGeometry width="50" height="50" relative="1" as="geometry">
            <mxPoint x="960" y="89" as="sourcePoint" />
            <mxPoint x="960" y="230" as="targetPoint" />
          </mxGeometry>
        </mxCell>
        <mxCell id="st4I57soAoaPSC-TbPq0-18" value="" style="endArrow=classic;html=1;rounded=0;exitX=0.5;exitY=1;exitDx=0;exitDy=0;entryX=0.058;entryY=0.01;entryDx=0;entryDy=0;entryPerimeter=0;" edge="1" parent="st4I57soAoaPSC-TbPq0-47">
          <mxGeometry width="50" height="50" relative="1" as="geometry">
            <mxPoint x="900" y="289" as="sourcePoint" />
            <mxPoint x="900" y="430" as="targetPoint" />
          </mxGeometry>
        </mxCell>
        <mxCell id="st4I57soAoaPSC-TbPq0-19" value="" style="endArrow=classic;html=1;rounded=0;exitX=0.327;exitY=-0.009;exitDx=0;exitDy=0;entryX=0.5;entryY=1;entryDx=0;entryDy=0;exitPerimeter=0;" edge="1" parent="st4I57soAoaPSC-TbPq0-47" source="st4I57soAoaPSC-TbPq0-2" target="st4I57soAoaPSC-TbPq0-5">
          <mxGeometry width="50" height="50" relative="1" as="geometry">
            <mxPoint x="90" y="100" as="sourcePoint" />
            <mxPoint x="90" y="241" as="targetPoint" />
          </mxGeometry>
        </mxCell>
        <mxCell id="st4I57soAoaPSC-TbPq0-20" value="" style="endArrow=classic;html=1;rounded=0;exitX=0.327;exitY=-0.009;exitDx=0;exitDy=0;entryX=0.5;entryY=1;entryDx=0;entryDy=0;exitPerimeter=0;" edge="1" parent="st4I57soAoaPSC-TbPq0-47">
          <mxGeometry width="50" height="50" relative="1" as="geometry">
            <mxPoint x="320" y="430" as="sourcePoint" />
            <mxPoint x="320" y="291" as="targetPoint" />
          </mxGeometry>
        </mxCell>
        <mxCell id="st4I57soAoaPSC-TbPq0-21" value="" style="endArrow=classic;html=1;rounded=0;exitX=0.327;exitY=-0.009;exitDx=0;exitDy=0;entryX=0.5;entryY=1;entryDx=0;entryDy=0;exitPerimeter=0;" edge="1" parent="st4I57soAoaPSC-TbPq0-47">
          <mxGeometry width="50" height="50" relative="1" as="geometry">
            <mxPoint x="719.6600000000001" y="229" as="sourcePoint" />
            <mxPoint x="719.6600000000001" y="90" as="targetPoint" />
          </mxGeometry>
        </mxCell>
        <mxCell id="st4I57soAoaPSC-TbPq0-22" value="" style="endArrow=classic;html=1;rounded=0;exitX=0.327;exitY=-0.009;exitDx=0;exitDy=0;entryX=0.5;entryY=1;entryDx=0;entryDy=0;exitPerimeter=0;" edge="1" parent="st4I57soAoaPSC-TbPq0-47">
          <mxGeometry width="50" height="50" relative="1" as="geometry">
            <mxPoint x="660.0000000000001" y="429" as="sourcePoint" />
            <mxPoint x="660.0000000000001" y="290" as="targetPoint" />
          </mxGeometry>
        </mxCell>
        <mxCell id="st4I57soAoaPSC-TbPq0-23" value="" style="endArrow=classic;html=1;rounded=0;exitX=0.327;exitY=-0.009;exitDx=0;exitDy=0;entryX=0.5;entryY=1;entryDx=0;entryDy=0;exitPerimeter=0;" edge="1" parent="st4I57soAoaPSC-TbPq0-47">
          <mxGeometry width="50" height="50" relative="1" as="geometry">
            <mxPoint x="1020" y="429" as="sourcePoint" />
            <mxPoint x="1020" y="290" as="targetPoint" />
          </mxGeometry>
        </mxCell>
        <mxCell id="st4I57soAoaPSC-TbPq0-24" value="" style="endArrow=classic;html=1;rounded=0;exitX=0.327;exitY=-0.009;exitDx=0;exitDy=0;entryX=0.5;entryY=1;entryDx=0;entryDy=0;exitPerimeter=0;" edge="1" parent="st4I57soAoaPSC-TbPq0-47">
          <mxGeometry width="50" height="50" relative="1" as="geometry">
            <mxPoint x="1040" y="229" as="sourcePoint" />
            <mxPoint x="1040" y="90" as="targetPoint" />
          </mxGeometry>
        </mxCell>
        <mxCell id="st4I57soAoaPSC-TbPq0-25" value="1. 创建&lt;br&gt;ReplicaSet" style="text;html=1;align=center;verticalAlign=middle;resizable=0;points=[];autosize=1;strokeColor=none;fillColor=none;" vertex="1" parent="st4I57soAoaPSC-TbPq0-47">
          <mxGeometry y="125" width="80" height="40" as="geometry" />
        </mxCell>
        <mxCell id="st4I57soAoaPSC-TbPq0-26" value="2. 创建&lt;br&gt;ReplicaSet" style="text;html=1;align=center;verticalAlign=middle;resizable=0;points=[];autosize=1;strokeColor=none;fillColor=none;" vertex="1" parent="st4I57soAoaPSC-TbPq0-47">
          <mxGeometry x="90" y="335" width="80" height="40" as="geometry" />
        </mxCell>
        <mxCell id="st4I57soAoaPSC-TbPq0-27" value="0. 开始watch&lt;br&gt;ReplicaSet" style="text;html=1;align=center;verticalAlign=middle;resizable=0;points=[];autosize=1;strokeColor=none;fillColor=none;" vertex="1" parent="st4I57soAoaPSC-TbPq0-47">
          <mxGeometry x="170" y="125" width="90" height="40" as="geometry" />
        </mxCell>
        <mxCell id="st4I57soAoaPSC-TbPq0-28" value="3. 发送创建&lt;br&gt;ReplicaSet&lt;br&gt;的事件" style="text;html=1;align=center;verticalAlign=middle;resizable=0;points=[];autosize=1;strokeColor=none;fillColor=none;" vertex="1" parent="st4I57soAoaPSC-TbPq0-47">
          <mxGeometry x="240" y="325" width="80" height="60" as="geometry" />
        </mxCell>
        <mxCell id="st4I57soAoaPSC-TbPq0-29" value="4. 发送创建&lt;br&gt;ReplicaSet&lt;br&gt;的事件" style="text;html=1;align=center;verticalAlign=middle;resizable=0;points=[];autosize=1;strokeColor=none;fillColor=none;" vertex="1" parent="st4I57soAoaPSC-TbPq0-47">
          <mxGeometry x="280" y="115" width="80" height="60" as="geometry" />
        </mxCell>
        <mxCell id="st4I57soAoaPSC-TbPq0-30" value="5. 创建Pod" style="text;html=1;align=center;verticalAlign=middle;resizable=0;points=[];autosize=1;strokeColor=none;fillColor=none;" vertex="1" parent="st4I57soAoaPSC-TbPq0-47">
          <mxGeometry x="380" y="130" width="80" height="30" as="geometry" />
        </mxCell>
        <mxCell id="st4I57soAoaPSC-TbPq0-31" value="6. 创建Pod" style="text;html=1;align=center;verticalAlign=middle;resizable=0;points=[];autosize=1;strokeColor=none;fillColor=none;" vertex="1" parent="st4I57soAoaPSC-TbPq0-47">
          <mxGeometry x="460" y="340" width="80" height="30" as="geometry" />
        </mxCell>
        <mxCell id="st4I57soAoaPSC-TbPq0-32" value="0. 开始&lt;br&gt;watch Pod&lt;br&gt;(destNode=&quot;&quot;)" style="text;html=1;align=center;verticalAlign=middle;resizable=0;points=[];autosize=1;strokeColor=none;fillColor=none;" vertex="1" parent="st4I57soAoaPSC-TbPq0-47">
          <mxGeometry x="525" y="115" width="100" height="60" as="geometry" />
        </mxCell>
        <mxCell id="st4I57soAoaPSC-TbPq0-33" value="7. 发送创建&lt;br&gt;Pod的事件" style="text;html=1;align=center;verticalAlign=middle;resizable=0;points=[];autosize=1;strokeColor=none;fillColor=none;" vertex="1" parent="st4I57soAoaPSC-TbPq0-47">
          <mxGeometry x="580" y="335" width="80" height="40" as="geometry" />
        </mxCell>
        <mxCell id="st4I57soAoaPSC-TbPq0-34" value="8. 发送创建&lt;br&gt;Pod的事件" style="text;html=1;align=center;verticalAlign=middle;resizable=0;points=[];autosize=1;strokeColor=none;fillColor=none;" vertex="1" parent="st4I57soAoaPSC-TbPq0-47">
          <mxGeometry x="640" y="125" width="80" height="40" as="geometry" />
        </mxCell>
        <mxCell id="st4I57soAoaPSC-TbPq0-35" value="9. 更新Pod" style="text;html=1;align=center;verticalAlign=middle;resizable=0;points=[];autosize=1;strokeColor=none;fillColor=none;" vertex="1" parent="st4I57soAoaPSC-TbPq0-47">
          <mxGeometry x="740" y="130" width="80" height="30" as="geometry" />
        </mxCell>
        <mxCell id="st4I57soAoaPSC-TbPq0-36" value="10. 更新Pod" style="text;html=1;align=center;verticalAlign=middle;resizable=0;points=[];autosize=1;strokeColor=none;fillColor=none;" vertex="1" parent="st4I57soAoaPSC-TbPq0-47">
          <mxGeometry x="810" y="340" width="90" height="30" as="geometry" />
        </mxCell>
        <mxCell id="st4I57soAoaPSC-TbPq0-37" value="0. 开始watch Pod&lt;br&gt;(destNode=&quot;node1&quot;)" style="text;html=1;align=center;verticalAlign=middle;resizable=0;points=[];autosize=1;strokeColor=none;fillColor=none;" vertex="1" parent="st4I57soAoaPSC-TbPq0-47">
          <mxGeometry x="830" y="125" width="130" height="40" as="geometry" />
        </mxCell>
        <mxCell id="st4I57soAoaPSC-TbPq0-38" value="12. 发送更新&lt;br&gt;Pod的事件" style="text;html=1;align=center;verticalAlign=middle;resizable=0;points=[];autosize=1;strokeColor=none;fillColor=none;" vertex="1" parent="st4I57soAoaPSC-TbPq0-47">
          <mxGeometry x="955" y="125" width="90" height="40" as="geometry" />
        </mxCell>
        <mxCell id="st4I57soAoaPSC-TbPq0-39" value="11. 发送更新&lt;br&gt;Pod的事件" style="text;html=1;align=center;verticalAlign=middle;resizable=0;points=[];autosize=1;strokeColor=none;fillColor=none;" vertex="1" parent="st4I57soAoaPSC-TbPq0-47">
          <mxGeometry x="930" y="335" width="90" height="40" as="geometry" />
        </mxCell>
        <mxCell id="st4I57soAoaPSC-TbPq0-40" value="" style="rounded=0;whiteSpace=wrap;html=1;fillColor=none;strokeWidth=3;dashed=1;" vertex="1" parent="st4I57soAoaPSC-TbPq0-47">
          <mxGeometry x="170" width="210" height="240" as="geometry" />
        </mxCell>
        <mxCell id="st4I57soAoaPSC-TbPq0-42" value="&lt;font style=&quot;font-size: 14px;&quot;&gt;&lt;b&gt;List-Watch 1&lt;/b&gt;&lt;/font&gt;" style="text;html=1;strokeColor=none;fillColor=none;align=center;verticalAlign=middle;whiteSpace=wrap;rounded=0;" vertex="1" parent="st4I57soAoaPSC-TbPq0-47">
          <mxGeometry x="227.5" width="95" height="30" as="geometry" />
        </mxCell>
        <mxCell id="st4I57soAoaPSC-TbPq0-43" value="" style="rounded=0;whiteSpace=wrap;html=1;fillColor=none;strokeWidth=3;dashed=1;" vertex="1" parent="st4I57soAoaPSC-TbPq0-47">
          <mxGeometry x="530" width="210" height="240" as="geometry" />
        </mxCell>
        <mxCell id="st4I57soAoaPSC-TbPq0-44" value="&lt;font style=&quot;font-size: 14px;&quot;&gt;&lt;b&gt;List-Watch 2&lt;/b&gt;&lt;/font&gt;" style="text;html=1;strokeColor=none;fillColor=none;align=center;verticalAlign=middle;whiteSpace=wrap;rounded=0;" vertex="1" parent="st4I57soAoaPSC-TbPq0-47">
          <mxGeometry x="587.5" width="95" height="30" as="geometry" />
        </mxCell>
        <mxCell id="st4I57soAoaPSC-TbPq0-45" value="" style="rounded=0;whiteSpace=wrap;html=1;fillColor=none;strokeWidth=3;dashed=1;" vertex="1" parent="st4I57soAoaPSC-TbPq0-47">
          <mxGeometry x="830" width="240" height="240" as="geometry" />
        </mxCell>
        <mxCell id="st4I57soAoaPSC-TbPq0-46" value="&lt;font style=&quot;font-size: 14px;&quot;&gt;&lt;b&gt;List-Watch 3&lt;/b&gt;&lt;/font&gt;" style="text;html=1;strokeColor=none;fillColor=none;align=center;verticalAlign=middle;whiteSpace=wrap;rounded=0;" vertex="1" parent="st4I57soAoaPSC-TbPq0-47">
          <mxGeometry x="902.5" width="95" height="30" as="geometry" />
        </mxCell>
      </root>
    </mxGraphModel>
  </diagram>
</mxfile>
